<svg id="Capa_1" data-name="Capa 1" xmlns="http://www.w3.org/2000/svg" viewBox="0 0 158.67 121"><defs><style>.cls-1{fill:#0a8ff2;}.cls-2{fill:#ffca2b;}.cls-3{fill:#75d5f2;}.cls-4{fill:#e892f4;}</style></defs><title>logo-chuli-kids</title><path class="cls-1" d="M14.57,114.21a10.14,10.14,0,0,1-3.26-.49,7.24,7.24,0,0,1-2.52-1.43A6.35,6.35,0,0,1,7.17,110a7.93,7.93,0,0,1-.57-3.1,10.35,10.35,0,0,1,.62-3.69A8,8,0,0,1,9,100.31a7.92,7.92,0,0,1,2.84-1.86,10.39,10.39,0,0,1,3.77-.64,8,8,0,0,1,1.87.2,6,6,0,0,1,1.55.56,3.19,3.19,0,0,1,1,.85,1.7,1.7,0,0,1,.37,1,1.68,1.68,0,0,1-.39,1.2,1.33,1.33,0,0,1-1,.4,2.26,2.26,0,0,1-.71-.1l-.67-.24a5.93,5.93,0,0,0-.85-.24,5.82,5.82,0,0,0-1.21-.1,2.92,2.92,0,0,0-1.27.29,3.4,3.4,0,0,0-1.08.87,4.26,4.26,0,0,0-.75,1.42,5.93,5.93,0,0,0-.28,1.92,6.81,6.81,0,0,0,.19,1.6,4,4,0,0,0,.6,1.33,3,3,0,0,0,1.08.91,3.54,3.54,0,0,0,1.6.33,3.82,3.82,0,0,0,1.16-.17,6.22,6.22,0,0,0,.94-.42c.28-.15.55-.29.81-.41a1.73,1.73,0,0,1,.79-.19,1.71,1.71,0,0,1,1.43.49,2,2,0,0,1,.39,1.29,2.35,2.35,0,0,1-.51,1.47,4.21,4.21,0,0,1-1.42,1.12,8.57,8.57,0,0,1-2.11.71A12.56,12.56,0,0,1,14.57,114.21Z"/><path class="cls-1" d="M37,113.71a2.21,2.21,0,0,1-1.23-.26,1.4,1.4,0,0,1-.52-.86c0-.23,0-.47,0-.72s0-.51,0-.77,0-.52,0-.78,0-.48,0-.7V109a3.51,3.51,0,0,0-.13-1,.81.81,0,0,0-.38-.51,2.33,2.33,0,0,0-.9-.28,13.81,13.81,0,0,0-1.86-.09l-1.15,0a6.11,6.11,0,0,0-.73.06,2.39,2.39,0,0,0-.47.1,2,2,0,0,0-.34.13,1.44,1.44,0,0,0-.33.25,1,1,0,0,0-.24.49,1.83,1.83,0,0,0-.09.4c0,.16-.05.33-.08.51s-.05.39-.07.62-.05.49-.07.77,0,.58-.06.91a3.7,3.7,0,0,1-.36,1.29,1.43,1.43,0,0,1-.71.64,3.13,3.13,0,0,1-1.14.18,2,2,0,0,1-1.59-.67,4.48,4.48,0,0,1-.85-1.72c-.08-.34-.15-.72-.21-1.15s-.1-.89-.13-1.37-.06-1-.08-1.41,0-.91,0-1.32,0-1.08,0-1.6.05-1,.09-1.48.08-.93.14-1.35.12-.82.2-1.2a7.71,7.71,0,0,1,.6-1.69,2.9,2.9,0,0,1,.92-1.08,2.27,2.27,0,0,1,1.31-.38,1.86,1.86,0,0,1,1.31.42,2.55,2.55,0,0,1,.64,1.34c0,.2.05.4.08.61s.05.42.08.62.06.4.08.59a5,5,0,0,0,.07.5c0,.15.05.27.08.37a4,4,0,0,0,.23.79.92.92,0,0,0,.44.47,3.77,3.77,0,0,0,1,.21c.44,0,.89.06,1.38.06h1.2a8.33,8.33,0,0,0,.94,0,1.42,1.42,0,0,0,.61-.18,1,1,0,0,0,.41-.43,3.25,3.25,0,0,0,.22-1c0-.21,0-.43.07-.68s0-.5.08-.77.07-.55.12-.83.1-.57.17-.86a2.16,2.16,0,0,1,.63-1.15,1.65,1.65,0,0,1,1.09-.37,2.06,2.06,0,0,1,1.51.55A3.67,3.67,0,0,1,39.74,99a8.25,8.25,0,0,1,.22,1c.06.4.11.84.16,1.33s.07,1,.09,1.55,0,1.11,0,1.68,0,1,0,1.48-.05,1-.09,1.5-.08,1-.14,1.42-.11.88-.17,1.27-.14.76-.22,1.08a3.49,3.49,0,0,1-1,1.78A2.32,2.32,0,0,1,37,113.71Z"/><path class="cls-1" d="M50.16,113.82a7.69,7.69,0,0,1-4.94-1.54,8.53,8.53,0,0,1-2.8-4.1,9,9,0,0,1-.28-1c-.08-.33-.14-.66-.19-1s-.1-.7-.14-1.06-.07-.73-.09-1.1,0-.76,0-1.16a10.91,10.91,0,0,1,.3-2.81,3,3,0,0,1,1-1.63,2.9,2.9,0,0,1,1.82-.53,1.93,1.93,0,0,1,1.27.4,2.36,2.36,0,0,1,.74,1.3,10.32,10.32,0,0,1,.24,2.5c0,.32,0,.63,0,.94s0,.62,0,.92.05.58.08.86.07.55.12.81.12.5.19.74a3.93,3.93,0,0,0,.93,1.7,2.27,2.27,0,0,0,1.72.65,2.58,2.58,0,0,0,1.24-.29,2.82,2.82,0,0,0,.93-.83A4.84,4.84,0,0,0,53,106.4a8.16,8.16,0,0,0,.28-1c.07-.33.14-.68.18-1s.08-.74.1-1.11,0-.75,0-1.12a8.32,8.32,0,0,1,.29-2.44,2.34,2.34,0,0,1,.87-1.31,2.53,2.53,0,0,1,1.46-.4,2.11,2.11,0,0,1,1.5.5,2.77,2.77,0,0,1,.71,1.57,15.88,15.88,0,0,1,.19,2.75c0,.41,0,.8,0,1.18s0,.75-.09,1.12-.09.73-.16,1.09-.14.69-.23,1a8,8,0,0,1-.3,1,9.18,9.18,0,0,1-1.66,2.94,7.3,7.3,0,0,1-2.54,1.94A8,8,0,0,1,50.16,113.82Z"/><path class="cls-1" d="M64.51,114a3.85,3.85,0,0,1-2.81-1.79,7.62,7.62,0,0,1-.77-3.72c0-.4,0-.85,0-1.34s.06-1,.1-1.54l.15-1.57c.06-.52.12-1,.19-1.46s.12-.82.17-1.13a7.25,7.25,0,0,1,1.15-3,2.47,2.47,0,0,1,2.06-1,2.07,2.07,0,0,1,1.29.34,1.65,1.65,0,0,1,.55,1,6.84,6.84,0,0,1,.13,1.45c0,.24,0,.52,0,.81s0,.61,0,.94,0,.66,0,1,0,.69,0,1,0,.68,0,1,0,.63,0,.92a8.2,8.2,0,0,0,.16,1.38,2.29,2.29,0,0,0,.4.92,1.62,1.62,0,0,0,.76.52,4.75,4.75,0,0,0,1.28.19l2,.17,1.49.18a6.72,6.72,0,0,1,1.06.07,2,2,0,0,1,.74.24,1.1,1.1,0,0,1,.38.45,2,2,0,0,1,.13.76,2.12,2.12,0,0,1-.44,1.34,3.42,3.42,0,0,1-1.14.93,9.57,9.57,0,0,1-1.59.62,14.08,14.08,0,0,1-2,.36,20.12,20.12,0,0,1-2.31.13H66.5c-.37,0-.73,0-1.07-.06Z"/><path class="cls-1" d="M79.61,113.54a2.33,2.33,0,0,1-2-.83,3.62,3.62,0,0,1-.63-2.23v-1.29c0-.49,0-1,0-1.61s0-1.19,0-1.82,0-1.26.08-1.88.06-1.24.11-1.82.09-1.11.15-1.6a4.37,4.37,0,0,1,.79-2.08A2.18,2.18,0,0,1,80,97.73a1.75,1.75,0,0,1,1.48.63,3.23,3.23,0,0,1,.62,1.64c0,.33.07.74.1,1.21s0,1,.06,1.54,0,1.13,0,1.7,0,1.14,0,1.69v2.75a13.1,13.1,0,0,1-.23,2.72,2.56,2.56,0,0,1-.82,1.48A2.71,2.71,0,0,1,79.61,113.54Z"/><path class="cls-1" d="M96.33,113.57a2.7,2.7,0,0,1-2-.65,3.56,3.56,0,0,1-.89-1.9c0-.34-.08-.71-.11-1.1s0-.8-.06-1.21,0-.83,0-1.24,0-.8,0-1.19c0-.9.07-1.8.17-2.73a17.81,17.81,0,0,1,.47-2.66,12.19,12.19,0,0,1,.86-2.34A3,3,0,0,1,96,97.39a4,4,0,0,1,1.8-.37,1.91,1.91,0,0,1,1.43.54A1.94,1.94,0,0,1,99.78,99q0,.4,0,.9c0,.33,0,.66-.08,1s-.06.65-.09.94,0,.55-.06.78a3.53,3.53,0,0,0,0,.47.61.61,0,0,0,.18.34.64.64,0,0,0,.42.11,1,1,0,0,0,.47-.15,2.34,2.34,0,0,0,.58-.45q.66-.64,1.68-1.56c.68-.61,1.35-1.18,2-1.7a10.26,10.26,0,0,1,1.77-1.2,3.48,3.48,0,0,1,1.59-.41,2.06,2.06,0,0,1,1.08.26,1.63,1.63,0,0,1,.6.68,2.26,2.26,0,0,1,.19.89,1.54,1.54,0,0,1-.12.58,2.89,2.89,0,0,1-.34.61,5.19,5.19,0,0,1-.56.66c-.22.22-.47.45-.75.68s-.77.57-1.21.87-.88.58-1.33.85-.85.5-1.23.7a7.09,7.09,0,0,0-.82.46c-.17.13-.26.24-.26.35a.54.54,0,0,0,.1.31,2,2,0,0,0,.42.42l.62.5.83.7.89.75.78.66c.23.2.4.35.49.45a7.2,7.2,0,0,1,1.22,1.31,1.88,1.88,0,0,1,.37,1,1.76,1.76,0,0,1-.3,1.07,1.69,1.69,0,0,1-.8.6,3.5,3.5,0,0,1-1.17.19,3.55,3.55,0,0,1-1.42-.35,7.64,7.64,0,0,1-1.72-1.12c-.51-.46-1-.87-1.31-1.22s-.66-.67-.91-1-.47-.53-.66-.76l-.54-.64c-.22-.32-.4-.57-.53-.73a2.26,2.26,0,0,0-.35-.35.51.51,0,0,0-.3-.1.27.27,0,0,0-.26.17,1,1,0,0,0-.08.46v.33c0,.17,0,.37,0,.6s0,.45,0,.69,0,.44,0,.64,0,.34,0,.45A4,4,0,0,1,98,112.9,2.13,2.13,0,0,1,96.33,113.57Z"/><path class="cls-1" d="M114.47,113.54a2.33,2.33,0,0,1-2-.83,3.62,3.62,0,0,1-.63-2.23v-1.29c0-.49,0-1,0-1.61s0-1.19,0-1.82,0-1.26.07-1.88.07-1.24.11-1.82.09-1.11.16-1.6a4.27,4.27,0,0,1,.78-2.08,2.19,2.19,0,0,1,1.78-.65,1.75,1.75,0,0,1,1.48.63A3.33,3.33,0,0,1,117,100c0,.33.06.74.09,1.21s0,1,.06,1.54l.06,1.7c0,.58,0,1.14,0,1.69v2.75a12.44,12.44,0,0,1-.23,2.72,2.56,2.56,0,0,1-.82,1.48A2.71,2.71,0,0,1,114.47,113.54Z"/><path class="cls-1" d="M123.74,113.67a4.79,4.79,0,0,1-2-.34,2.42,2.42,0,0,1-1.14-1,5.45,5.45,0,0,1-.55-1.76,15.15,15.15,0,0,1-.2-1.86c0-.7-.05-1.47-.05-2.3q0-1.68.09-3.12a13.26,13.26,0,0,1,.36-2.57,5.19,5.19,0,0,1,1.3-2.5,3.72,3.72,0,0,1,2.71-.9,14.51,14.51,0,0,1,7.2,1.88,12,12,0,0,1,2.61,2,8.68,8.68,0,0,1,1.7,2.28,5.14,5.14,0,0,1,.6,2.33,5.08,5.08,0,0,1-.64,2.47,7.55,7.55,0,0,1-1.8,2.17,11.91,11.91,0,0,1-2.73,1.73,16.24,16.24,0,0,1-3.47,1.14A18.55,18.55,0,0,1,123.74,113.67Zm2.18-4.67a7.43,7.43,0,0,0,1.89-.22,6,6,0,0,0,1.48-.6,4.5,4.5,0,0,0,1.08-.86,3.72,3.72,0,0,0,.66-1,2.44,2.44,0,0,0,.22-1,2,2,0,0,0-.25-.92,3.94,3.94,0,0,0-.73-1,5.49,5.49,0,0,0-1.16-.84,6.79,6.79,0,0,0-1.53-.61,7.05,7.05,0,0,0-1.83-.23.68.68,0,0,0-.55.26,1.88,1.88,0,0,0-.33.71,6.1,6.1,0,0,0-.14.87c0,.33,0,.68,0,1,0,.75,0,1.4,0,2a6.48,6.48,0,0,0,.17,1.35C125.06,108.66,125.4,109,125.92,109Z"/><path class="cls-1" d="M143.8,114a15.91,15.91,0,0,1-2.31-.16,10.65,10.65,0,0,1-2.05-.47,4,4,0,0,1-1.46-.82,1.54,1.54,0,0,1-.55-1.19,1.64,1.64,0,0,1,.31-1.08,1.62,1.62,0,0,1,.84-.54,4,4,0,0,1,1.12-.15,2.24,2.24,0,0,1,.59.12,8.64,8.64,0,0,0,.93.25,4.71,4.71,0,0,0,1.17.13c.54,0,1,0,1.42-.06a3.85,3.85,0,0,0,1-.23,1.22,1.22,0,0,0,.84-1.26,1.27,1.27,0,0,0-.24-.76,2.44,2.44,0,0,0-.66-.6,6.5,6.5,0,0,0-1-.51c-.38-.17-.79-.33-1.24-.51a14.86,14.86,0,0,1-1.76-.78,7.38,7.38,0,0,1-1.46-1,4.54,4.54,0,0,1-1-1.23,3.43,3.43,0,0,1-.35-1.55,3.3,3.3,0,0,1,.5-1.81,4.41,4.41,0,0,1,1.34-1.31,7.44,7.44,0,0,1,1.89-.87,14.06,14.06,0,0,1,2.16-.47A16.15,16.15,0,0,1,146,97a13.73,13.73,0,0,1,2,.14,8.54,8.54,0,0,1,1.69.41,3.29,3.29,0,0,1,1.16.68,1.3,1.3,0,0,1,.43,1,1.6,1.6,0,0,1-.29,1,1.55,1.55,0,0,1-.73.55,2.58,2.58,0,0,1-1,.18,1.71,1.71,0,0,1-.61-.14c-.23-.09-.51-.18-.83-.27a4.25,4.25,0,0,0-1.17-.14,5.41,5.41,0,0,0-.91.07,2.83,2.83,0,0,0-.81.22,1.39,1.39,0,0,0-.57.43,1.09,1.09,0,0,0-.2.69,1.27,1.27,0,0,0,.23.77,2.56,2.56,0,0,0,.65.61,7.19,7.19,0,0,0,1,.52q.57.26,1.23.51A16.52,16.52,0,0,1,149,105a8.77,8.77,0,0,1,1.55,1.09,4.86,4.86,0,0,1,1.1,1.39,3.73,3.73,0,0,1,.41,1.75,3.64,3.64,0,0,1-.66,2.19,4.81,4.81,0,0,1-1.82,1.48,9.73,9.73,0,0,1-2.64.82A18.68,18.68,0,0,1,143.8,114Z"/><path class="cls-2" d="M54.55,81.58a40.77,40.77,0,0,1-2.5-66.26c-2.71,4.64-5.76,8.85,5,25.57C65.5,54,58,72.67,54.55,81.58Z"/><path class="cls-3" d="M82.63,87.92a40.58,40.58,0,0,1-28.08-6.34C58,72.67,63,57.69,57.19,43.21,53.72,34.62,43,25,52.05,15.32A40.59,40.59,0,0,1,74,6.9c-1.16,9.61-11,14.37,3,38.5C84.67,58.56,89.6,74.47,82.63,87.92Z"/><path class="cls-4" d="M97.49,82.79a40.11,40.11,0,0,1-14.86,5.13c6-13.45,1.72-30.7-7.12-43.11C67.22,33.18,62.86,16.9,74,6.9c1-.08,2-.11,3-.11A40.59,40.59,0,0,1,103.87,16.9c4.34,7.42,8.81,14.91,4.19,24.13C100.62,56,94,75.37,97.49,82.79Z"/><path class="cls-2" d="M117.76,47.55A40.71,40.71,0,0,1,97.49,82.79C94,75.37,89.9,62.11,101.38,45.25c9-13.26,4.82-21.51,2.49-28.35A40.66,40.66,0,0,1,117.76,47.55Z"/><path class="cls-1" d="M117.78,39.55c2.24-.3,4.48-.44,6.74-.62s4.51-.17,6.78-.19,4.55.09,6.86.25a67.12,67.12,0,0,1,7.07.87,26.34,26.34,0,0,1,3.78,1,16.41,16.41,0,0,1,2.12.89,10.79,10.79,0,0,1,2.53,1.72,6,6,0,0,1,.73.76,7.26,7.26,0,0,1,.75,1c.12.21.24.42.35.63a6.86,6.86,0,0,1,.31.77,7.93,7.93,0,0,1,.25.83q.09.45.15.93a7.16,7.16,0,0,1-.06,1.85A6.73,6.73,0,0,1,155.7,52a12.16,12.16,0,0,1-.66,1.36,9.76,9.76,0,0,1-.68.95,7.58,7.58,0,0,1-.7.81l-.62.59a10.42,10.42,0,0,1-1.18,1l-.56.41-.52.33c-.33.2-.69.43-1,.61a43.28,43.28,0,0,1-7.23,3.1c-2.31.79-4.58,1.48-6.85,2s-4.52,1.09-6.77,1.55-4.5.85-6.75,1.22c-4.49.77-9,1.28-13.48,1.76s-9,.75-13.48,1-9,.31-13.48.36-9-.07-13.47-.24-9-.44-13.47-.87-9-.88-13.46-1.57-9-1.45-13.47-2.45c-2.25-.48-4.5-1.08-6.76-1.71s-4.53-1.36-6.84-2.28c-1.16-.44-2.34-1-3.55-1.55a21.13,21.13,0,0,1-3.94-2.41,11,11,0,0,1-1.16-1A10,10,0,0,1,4.34,53.4a7.17,7.17,0,0,1-.63-1.14c-.1-.21-.2-.43-.28-.65l-.12-.32-.1-.41A8.33,8.33,0,0,1,3,49.17a6.83,6.83,0,0,1,.21-1.7A7.09,7.09,0,0,1,3.76,46c.11-.2.22-.4.34-.6A5.85,5.85,0,0,1,4.44,45c.12-.16.24-.32.36-.45l.34-.36.35-.34.32-.26a10.05,10.05,0,0,1,2.35-1.43,21,21,0,0,1,3.93-1.28c1.23-.28,2.43-.49,3.6-.66a58.92,58.92,0,0,1,6.93-.59c2.29-.06,4.56-.07,6.81,0s4.51.21,6.77.47l.11,1c-4.36.55-8.7,1.19-13,2.06-2.15.44-4.28.93-6.37,1.53A27.26,27.26,0,0,0,11,47c-.87.49-1.72,1.2-1.86,1.81a1.21,1.21,0,0,0,.27.9,4.88,4.88,0,0,0,1,.91A22.14,22.14,0,0,0,16.28,53a101.77,101.77,0,0,0,12.82,2.6c8.68,1.25,17.45,2,26.22,2.41s17.57.6,26.36.53,17.58-.27,26.35-.82a237.88,237.88,0,0,0,26.15-2.89c2.16-.38,4.3-.82,6.4-1.36a35.89,35.89,0,0,0,6.11-2,7.87,7.87,0,0,0,2.44-1.62c.58-.67.54-1.14-.11-1.83a8.62,8.62,0,0,0-2.53-1.6,28.9,28.9,0,0,0-3-1.15,89.47,89.47,0,0,0-12.76-2.92c-4.33-.72-8.69-1.28-13.06-1.75Z"/></svg>